<?xml version="1.0" encoding="UTF-8" standalone="no"?>
<svg
   xmlns:svg="http://www.w3.org/2000/svg"
   xmlns="http://www.w3.org/2000/svg"
   xmlns:xlink="http://www.w3.org/1999/xlink"
   xmlns:sodipodi="http://sodipodi.sourceforge.net/DTD/sodipodi-0.dtd"
   xmlns:inkscape="http://www.inkscape.org/namespaces/inkscape"
   inkscape:version="1.0 (4035a4fb49, 2020-05-01)"
   height="16"
   width="16"
   sodipodi:docname="orcid.svg"
   xml:space="preserve"
   viewBox="0 0 16 16"
   y="0px"
   x="0px"
   id="Layer_1"
   version="1.1"><defs
     id="defs2415"><symbol
       id="symbol4402"><path
         inkscape:label="#orcid"
         style="fill:#828282;fill-opacity:1;stroke-width:1"
         d="M 8,0 C 3.58125,0 0,3.58125 0,8 c 0,4.41875 3.58125,8 8,8 4.41875,0 8,-3.58125 8,-8 C 16,3.58125 12.41875,0 8,0 Z M 4.9124756,2.9187012 c 0.35,0 0.6312256,0.2875976 0.6312256,0.6313476 0,0.34375 -0.2812256,0.6312256 -0.6312256,0.6312256 -0.35,0 -0.6312256,-0.2874756 -0.6312256,-0.6312256 0,-0.35 0.2812256,-0.6313476 0.6312256,-0.6313476 z M 4.4312744,4.9437256 H 5.3937988 V 7.96875 11.637451 H 4.4312744 Z m 2.375,0 H 9.40625 c 2.475,0 3.5625,1.7687256 3.5625,3.3499757 0,1.7187497 -1.343799,3.3500977 -3.5500487,3.3500977 H 6.8062744 Z M 7.7687987,5.8125 v 4.962524 h 1.5312501 c 2.1812502,0 2.6811522,-1.6563227 2.6811522,-2.4813227 C 11.981201,6.9499512 11.125,5.8125 9.25,5.8125 Z"
         id="orcid" /></symbol></defs><sodipodi:namedview
     inkscape:current-layer="Layer_1"
     inkscape:window-maximized="1"
     inkscape:window-y="0"
     inkscape:window-x="0"
     inkscape:cy="9.3463602"
     inkscape:cx="-19.344336"
     inkscape:zoom="16.03125"
     showgrid="false"
     id="namedview2413"
     inkscape:window-height="1376"
     inkscape:window-width="3440"
     inkscape:pageshadow="2"
     inkscape:pageopacity="0"
     guidetolerance="10"
     gridtolerance="10"
     objecttolerance="10"
     borderopacity="1"
     bordercolor="#666666"
     pagecolor="#ffffff"
     inkscape:document-rotation="0" /><use
     id="use4405"
     xlink:href="#symbol4402" /></svg>
